<?xml version="1.0" encoding="UTF-8" standalone="no"?>
<svg
   xmlns:dc="http://purl.org/dc/elements/1.1/"
   xmlns:cc="http://creativecommons.org/ns#"
   xmlns:rdf="http://www.w3.org/1999/02/22-rdf-syntax-ns#"
   xmlns:svg="http://www.w3.org/2000/svg"
   xmlns="http://www.w3.org/2000/svg"
   xmlns:sodipodi="http://sodipodi.sourceforge.net/DTD/sodipodi-0.dtd"
   xmlns:inkscape="http://www.inkscape.org/namespaces/inkscape"
   width="81.328636mm"
   height="64.74572mm"
   viewBox="0 0 81.328637 64.745721"
   version="1.1"
   id="svg2440"
   inkscape:version="1.0.1 (3bc2e813f5, 2020-09-07)"
   sodipodi:docname="shipwright-logo-stacked-1color-darkbg.svg">
  <defs
     id="defs2434" />
  <sodipodi:namedview
     id="base"
     pagecolor="#101010"
     bordercolor="#666666"
     borderopacity="1.0"
     inkscape:pageopacity="0"
     inkscape:pageshadow="2"
     inkscape:zoom="1.979899"
     inkscape:cx="7.0464504"
     inkscape:cy="159.8976"
     inkscape:document-units="mm"
     inkscape:current-layer="g2546"
     inkscape:document-rotation="0"
     showgrid="false"
     lock-margins="true"
     fit-margin-top="10"
     fit-margin-left="10"
     fit-margin-right="10"
     fit-margin-bottom="10"
     inkscape:window-width="1920"
     inkscape:window-height="1136"
     inkscape:window-x="1057"
     inkscape:window-y="27"
     inkscape:window-maximized="0" />
  <metadata
     id="metadata2437">
    <rdf:RDF>
      <cc:Work
         rdf:about="">
        <dc:format>image/svg+xml</dc:format>
        <dc:type
           rdf:resource="http://purl.org/dc/dcmitype/StillImage" />
        <dc:title></dc:title>
      </cc:Work>
    </rdf:RDF>
  </metadata>
  <g
     inkscape:label="Layer 1"
     inkscape:groupmode="layer"
     id="layer1"
     transform="translate(-46.527311,94.526333)">
    <g
       id="g3264">
      <g
         id="g3218">
        <g
           id="g2546">
          <g
             id="g859"
             style="fill:#ffffff">
            <path
               id="path1615-4"
               style="display:inline;fill:#ffffff;fill-opacity:1;stroke:none;stroke-width:8.48561;stroke-linecap:round;stroke-linejoin:round;stroke-miterlimit:4;stroke-dasharray:none;stroke-opacity:1;paint-order:markers fill stroke;stop-color:#000000"
               inkscape:transform-center-x="5.5332108"
               inkscape:transform-center-y="-4.7864888"
               d="M 156.21484 37.800781 C 148.68521 37.773427 140.92283 37.861684 135.00586 38.070312 C 132.37604 38.162911 130.11325 38.277875 128.36328 38.421875 C 127.48831 38.493686 126.74363 38.571149 126.11133 38.666016 C 125.47904 38.760504 125.08374 38.760533 124.26172 39.15625 C 123.43974 39.55208 123.19279 39.863427 122.72461 40.298828 C 122.25641 40.734192 121.73267 41.267019 121.13086 41.90625 C 119.92723 43.184751 118.42731 44.882434 116.71484 46.880859 C 113.28989 50.87771 109.02857 56.069365 104.83984 61.322266 C 100.6511 66.575204 96.536619 71.884481 93.402344 76.113281 C 91.835216 78.227662 90.515648 80.067287 89.537109 81.525391 C 89.047827 82.254424 88.64646 82.886017 88.326172 83.439453 C 88.005857 83.992852 87.755846 84.301705 87.552734 85.191406 C 87.349623 86.081107 87.441894 86.465834 87.490234 87.103516 C 87.537932 87.741235 87.625578 88.486177 87.75 89.355469 C 87.998844 91.094051 88.390566 93.326572 88.884766 95.912109 C 89.87315 101.08318 91.275665 107.65144 92.769531 114.20312 C 94.263412 120.75486 95.846357 127.2808 97.197266 132.36914 C 97.872716 134.91333 98.488104 137.09497 99.017578 138.76953 C 99.282334 139.60681 99.523022 140.31458 99.755859 140.91016 C 99.988716 141.50573 100.07575 141.89381 100.64453 142.60742 C 101.21325 143.321 101.57304 143.49183 102.10156 143.85156 C 102.6301 144.21137 103.2665 144.60413 104.02344 145.04883 C 105.53732 145.93815 107.52474 147.02456 109.85352 148.25 C 114.51105 150.7008 120.51863 153.69707 126.57031 156.61328 C 132.62199 159.52945 138.71038 162.36086 143.5293 164.47656 C 145.93876 165.53441 148.02719 166.41503 149.66602 167.04492 C 150.48542 167.35976 151.19015 167.60959 151.80078 167.79883 C 152.41142 167.98818 152.76742 168.16211 153.67969 168.16211 C 154.59202 168.16222 154.94986 167.98818 155.56055 167.79883 C 156.17125 167.60985 156.87384 167.35773 157.69336 167.04297 C 159.33239 166.41345 161.42027 165.53588 163.83008 164.47852 C 168.64967 162.36387 174.74034 159.53399 180.79297 156.61914 C 186.84558 153.70426 192.85341 150.70954 197.51172 148.25977 C 199.84087 147.03486 201.8296 145.94761 203.34375 145.05859 C 204.10083 144.61408 204.73703 144.22095 205.26562 143.86133 C 205.79427 143.5019 206.15376 143.33061 206.72266 142.61719 C 207.29155 141.90376 207.3764 141.51542 207.60938 140.91992 C 207.84256 140.32442 208.08463 139.61842 208.34961 138.78125 C 208.87954 137.10688 209.49767 134.9267 210.17383 132.38281 C 211.52614 127.295 213.10781 120.76785 214.60352 114.2168 C 216.09923 107.66574 217.50627 101.09835 218.49609 95.927734 C 218.99102 93.342424 219.38355 91.10761 219.63281 89.369141 C 219.75754 88.499887 219.84578 87.758776 219.89453 87.121094 C 219.94291 86.48345 220.03304 86.096808 219.83008 85.207031 C 219.62712 84.317217 219.3768 84.010543 219.05664 83.457031 C 218.73651 82.903519 218.33485 82.272153 217.8457 81.542969 C 216.86745 80.084638 215.5472 78.239872 213.98047 76.125 C 210.84705 71.895369 206.73264 66.588057 202.54492 61.333984 C 198.35723 56.079912 194.10189 50.886467 190.67773 46.888672 C 188.96566 44.889755 187.46313 43.192866 186.25977 41.914062 C 185.65808 41.274681 185.13411 40.742156 184.66602 40.306641 C 184.19791 39.871126 183.95274 39.558166 183.13086 39.162109 C 181.89801 38.568005 181.36942 38.664103 180.24609 38.542969 C 179.12277 38.421646 177.70679 38.320485 176.03711 38.232422 C 172.69772 38.056296 168.35323 37.937108 163.58984 37.867188 C 161.20815 37.832227 158.72472 37.809899 156.21484 37.800781 z M 153.64062 48.689453 C 153.68458 48.688697 153.72377 48.693677 153.76758 48.693359 C 153.81123 48.693737 153.85054 48.688852 153.89453 48.689453 L 153.89453 48.697266 C 158.70016 48.69335 162.01316 50.384453 162.58789 50.988281 C 162.90552 51.851159 163.06603 58.81322 163.10156 60.449219 L 177.04102 60.449219 A 3.2129198 3.2129198 0 0 1 180.25195 63.777344 L 179.47852 83.931641 C 185.08561 86.149244 189.30273 88.005859 189.30273 88.005859 C 188.35987 91.524615 185.24615 102.35126 182.89453 110.15234 C 178.53635 108.49235 174.80273 106.37109 174.80273 106.37109 L 171.79102 104.47461 C 161.18404 113.97158 144.93736 112.48956 135.08203 104.54883 L 132.23242 106.42383 C 132.23242 106.42383 129.1432 108.25294 125.23242 109.83594 C 122.56116 101.90939 119.20141 91.629444 118.23047 88.005859 C 118.23047 88.005859 122.44734 86.150461 128.05273 83.933594 L 127.2793 63.777344 A 3.2129198 3.2129198 0 0 1 130.49023 60.449219 L 144.43164 60.449219 C 144.46759 58.81325 144.63163 51.851159 144.94922 50.988281 C 145.52396 50.384434 148.83488 48.693108 153.64062 48.697266 L 153.64062 48.689453 z M 133.82812 66.871094 L 134.39258 81.53125 C 141.1318 79.071632 148.43235 76.756494 153.11523 76.382812 L 153.11523 76.324219 C 153.33294 76.324219 153.55018 76.336632 153.76758 76.345703 C 153.98477 76.33701 154.20042 76.324219 154.41797 76.324219 L 154.41797 76.382812 C 159.10194 76.756169 166.40629 79.071042 173.14648 81.53125 L 173.71094 66.871094 L 133.82812 66.871094 z M 171.48242 111.125 L 173.99219 112.71289 C 173.99219 112.71289 184.03368 118.54297 190.81641 118.54297 L 190.81641 126.10352 C 182.06359 126.10352 174.78783 121.90612 172.13867 120.2793 C 169.48415 122.34864 163.50166 126.439 153.01953 126.0957 C 142.71659 125.75829 136.82724 122.07356 134.24023 120.25 C 131.64769 121.88455 124.49537 126.10352 115.46875 126.10352 L 115.46875 118.54297 C 122.74745 118.54297 132.23242 112.75 132.23242 112.75 L 134.60938 111.18359 L 136.76562 113.03711 C 136.76562 113.03711 142.68804 118.19661 153.26367 118.54297 C 163.57653 118.88071 169.34961 113.19141 169.34961 113.19141 L 171.48242 111.125 z M 171.48242 128.125 C 177.19223 131.73562 184.15587 133.03613 190.81641 133.54297 L 190.81641 141.10352 C 182.06359 141.10352 174.78783 138.90608 172.13867 137.2793 C 169.48415 139.34863 163.50166 142.06388 153.01953 141.7207 C 142.71659 141.3833 136.82724 139.07351 134.24023 137.25 C 131.64769 138.88453 124.49537 141.10352 115.46875 141.10352 L 115.46875 133.54297 C 121.28286 133.436 128.79266 131.52794 134.60938 128.18359 C 139.75078 132.60309 146.56541 133.90866 153.26367 134.16797 C 157.46241 134.23903 166.48393 132.95771 171.48242 128.125 z "
               transform="matrix(0.26458333,0,0,0.26458333,46.527311,-94.526333)" />
            <g
               aria-label="SHIPWRIGHT"
               id="g1613"
               style="font-style:normal;font-weight:normal;font-size:117.022px;line-height:1.25;font-family:sans-serif;fill:#ffffff;fill-opacity:1;stroke:none;stroke-width:13.9584"
               transform="matrix(0.07044628,0,0,0.07044628,64.787015,-110.30551)">
              <g
                 aria-label="SHIPWRIGHT"
                 id="text1611"
                 style="font-style:normal;font-weight:normal;font-size:126.832px;line-height:1.25;font-family:sans-serif;letter-spacing:0px;word-spacing:0px;fill:#ffffff;fill-opacity:1;stroke:none;stroke-width:18.9037">
                <path
                   d="m -81.101144,1001.116 c 25.3664,0 37.669104,-12.68316 37.669104,-27.5225 0,-32.59583 -51.620624,-21.30778 -51.620624,-37.66911 0,-5.58061 4.692784,-10.14656 16.868656,-10.14656 7.863584,0 16.361328,2.28298 24.605408,6.97576 l 6.3416,-15.60034 c -8.24408,-5.20011 -19.65896,-7.86358 -30.820176,-7.86358 -25.239564,0 -37.415444,12.55637 -37.415444,27.64938 0,32.97632 51.620628,21.56144 51.620628,38.17643 0,5.45378 -4.946448,9.5124 -17.12232,9.5124 -10.653888,0 -21.815108,-3.80496 -29.298188,-9.25874 l -6.97576,15.47351 c 7.86358,6.08793 22.068764,10.27335 36.147116,10.27335 z"
                   style="font-style:normal;font-variant:normal;font-weight:bold;font-stretch:normal;font-size:126.832px;font-family:Montserrat;-inkscape-font-specification:'Montserrat Bold';fill:#ffffff;fill-opacity:1;stroke-width:18.9037"
                   id="path3266" />
                <path
                   d="m 31.525496,910.81165 v 35.00564 H -8.8070802 V 910.81165 H -29.353864 v 88.78241 H -8.8070802 V 963.19327 H 31.525496 v 36.40079 H 52.07228 v -88.78241 z"
                   style="font-style:normal;font-variant:normal;font-weight:bold;font-stretch:normal;font-size:126.832px;font-family:Montserrat;-inkscape-font-specification:'Montserrat Bold';fill:#ffffff;fill-opacity:1;stroke-width:18.9037"
                   id="path3268" />
                <path
                   d="M 73.126223,999.59406 H 93.673007 V 910.81165 H 73.126223 Z"
                   style="font-style:normal;font-variant:normal;font-weight:bold;font-stretch:normal;font-size:126.832px;font-family:Montserrat;-inkscape-font-specification:'Montserrat Bold';fill:#ffffff;fill-opacity:1;stroke-width:18.9037"
                   id="path3270" />
                <path
                   d="m 153.1571,910.81165 h -38.43009 v 88.78241 h 20.54678 v -24.47858 h 17.88331 c 23.71759,0 38.55693,-12.30271 38.55693,-32.0885 0,-19.91262 -14.83934,-32.21533 -38.55693,-32.21533 z m -1.14148,47.562 h -16.74183 v -30.82017 h 16.74183 c 12.55636,0 18.89796,5.70744 18.89796,15.4735 0,9.63923 -6.3416,15.34667 -18.89796,15.34667 z"
                   style="font-style:normal;font-variant:normal;font-weight:bold;font-stretch:normal;font-size:126.832px;font-family:Montserrat;-inkscape-font-specification:'Montserrat Bold';fill:#ffffff;fill-opacity:1;stroke-width:18.9037"
                   id="path3272" />
                <path
                   d="m 319.81395,910.81165 -20.67361,62.90868 -20.29312,-62.90868 h -19.0248 L 238.89514,973.213 218.85568,910.81165 H 197.5479 l 29.17136,88.78241 h 21.94194 l 20.16629,-60.11837 19.53213,60.11837 h 22.06876 l 29.04453,-88.78241 z"
                   style="font-style:normal;font-variant:normal;font-weight:bold;font-stretch:normal;font-size:126.832px;font-family:Montserrat;-inkscape-font-specification:'Montserrat Bold';fill:#ffffff;fill-opacity:1;stroke-width:18.9037"
                   id="path3274" />
                <path
                   d="m 429.52325,999.59406 -19.91263,-28.5372 c 11.54172,-4.94645 18.26381,-14.71252 18.26381,-28.02988 0,-19.91262 -14.83934,-32.21533 -38.55693,-32.21533 h -38.43009 v 88.78241 h 20.54678 v -24.73224 h 17.88331 1.01466 l 17.12232,24.73224 z m -22.44927,-56.56708 c 0,9.63923 -6.3416,15.47351 -18.89796,15.47351 h -16.74183 v -30.94701 h 16.74183 c 12.55636,0 18.89796,5.70744 18.89796,15.4735 z"
                   style="font-style:normal;font-variant:normal;font-weight:bold;font-stretch:normal;font-size:126.832px;font-family:Montserrat;-inkscape-font-specification:'Montserrat Bold';fill:#ffffff;fill-opacity:1;stroke-width:18.9037"
                   id="path3276" />
                <path
                   d="m 444.10878,999.59406 h 20.54679 v -88.78241 h -20.54679 z"
                   style="font-style:normal;font-variant:normal;font-weight:bold;font-stretch:normal;font-size:126.832px;font-family:Montserrat;-inkscape-font-specification:'Montserrat Bold';fill:#ffffff;fill-opacity:1;stroke-width:18.9037"
                   id="path3278" />
                <path
                   d="m 545.70109,979.80826 c -5.20011,2.79031 -10.40023,3.80496 -15.98083,3.80496 -16.99549,0 -28.79087,-11.79537 -28.79087,-28.41037 0,-16.86865 11.79538,-28.41036 29.04453,-28.41036 9.00507,0 16.48816,3.1708 22.95659,10.01972 l 13.19053,-12.17587 c -8.62458,-10.01973 -21.56144,-15.34667 -37.16178,-15.34667 -28.28353,0 -48.83032,19.15163 -48.83032,45.91318 0,26.76156 20.54679,45.91315 48.44983,45.91315 12.6832,0 26.12739,-3.93175 35.89345,-11.28801 V 953.8077 h -18.77113 z"
                   style="font-style:normal;font-variant:normal;font-weight:bold;font-stretch:normal;font-size:126.832px;font-family:Montserrat;-inkscape-font-specification:'Montserrat Bold';fill:#ffffff;fill-opacity:1;stroke-width:18.9037"
                   id="path3280" />
                <path
                   d="m 644.37639,910.81165 v 35.00564 h -40.33258 v -35.00564 h -20.54678 v 88.78241 h 20.54678 v -36.40079 h 40.33258 v 36.40079 h 20.54678 v -88.78241 z"
                   style="font-style:normal;font-variant:normal;font-weight:bold;font-stretch:normal;font-size:126.832px;font-family:Montserrat;-inkscape-font-specification:'Montserrat Bold';fill:#ffffff;fill-opacity:1;stroke-width:18.9037"
                   id="path3282" />
                <path
                   d="m 704.36771,999.59406 h 20.54678 v -72.04058 h 28.41037 v -16.74183 h -77.36752 v 16.74183 h 28.41037 z"
                   style="font-style:normal;font-variant:normal;font-weight:bold;font-stretch:normal;font-size:126.832px;font-family:Montserrat;-inkscape-font-specification:'Montserrat Bold';fill:#ffffff;fill-opacity:1;stroke-width:18.9037"
                   id="path3284" />
              </g>
            </g>
          </g>
        </g>
      </g>
    </g>
  </g>
</svg>
