<?xml version="1.0" encoding="UTF-8" standalone="no"?>
<svg
   xmlns:dc="http://purl.org/dc/elements/1.1/"
   xmlns:cc="http://creativecommons.org/ns#"
   xmlns:rdf="http://www.w3.org/1999/02/22-rdf-syntax-ns#"
   xmlns:svg="http://www.w3.org/2000/svg"
   xmlns="http://www.w3.org/2000/svg"
   xmlns:sodipodi="http://sodipodi.sourceforge.net/DTD/sodipodi-0.dtd"
   xmlns:inkscape="http://www.inkscape.org/namespaces/inkscape"
   viewBox="51.683 53.059 364.60308 57.488692"
   version="1.1"
   id="svg897"
   sodipodi:docname="logo.svg"
   width="364.60309"
   height="57.488693"
   inkscape:version="1.0.1 (3bc2e813f5, 2020-09-07)">
  <metadata
     id="metadata903">
    <rdf:RDF>
      <cc:Work
         rdf:about="">
        <dc:format>image/svg+xml</dc:format>
        <dc:type
           rdf:resource="http://purl.org/dc/dcmitype/StillImage" />
        <dc:title></dc:title>
      </cc:Work>
    </rdf:RDF>
  </metadata>
  <defs
     id="defs901" />
  <sodipodi:namedview
     pagecolor="#ffffff"
     bordercolor="#666666"
     borderopacity="1"
     objecttolerance="10"
     gridtolerance="10"
     guidetolerance="10"
     inkscape:pageopacity="0"
     inkscape:pageshadow="2"
     inkscape:window-width="3840"
     inkscape:window-height="1136"
     id="namedview899"
     showgrid="false"
     fit-margin-top="1"
     fit-margin-left="1"
     fit-margin-right="1"
     fit-margin-bottom="1"
     inkscape:zoom="4"
     inkscape:cx="119.77058"
     inkscape:cy="39.178367"
     inkscape:window-x="0"
     inkscape:window-y="27"
     inkscape:window-maximized="1"
     inkscape:current-layer="svg897" />
  <g
     id="g3534"
     style="display:inline;opacity:1"
     transform="matrix(3.7795276,0,0,3.7795276,137.24135,-644.69059)">
    <g
       id="g1145">
      <g
         id="g1120"
         transform="matrix(0.42563202,0,0,0.42563202,-23.612746,184.05106)"
         style="stroke-width:2.34944">
        <path
           id="path1110"
           style="display:inline;opacity:1;fill:#7c8fa4;fill-opacity:1;stroke:none;stroke-width:5.27487;stroke-linecap:round;stroke-linejoin:round;stroke-miterlimit:4;stroke-dasharray:none;stroke-opacity:1;paint-order:markers fill stroke;stop-color:#000000"
           inkscape:transform-center-x="5.5332108"
           inkscape:transform-center-y="-4.7864888"
           d="m -65.965324,3.16579 c -0.231504,0.019 -0.428322,0.0397 -0.595619,0.0648 -0.167292,0.025 -0.272005,0.0249 -0.489497,0.1296 -0.217482,0.10473 -0.282783,0.18684 -0.406657,0.30204 -0.123879,0.11519 -0.262167,0.25615 -0.421397,0.42528 -0.318459,0.33827 -0.715636,0.78757 -1.168726,1.31632 -0.906185,1.0575 -2.033387,2.43118 -3.141655,3.82101 -1.108273,1.38984 -2.196866,2.79446 -3.026143,3.91333 -0.414636,0.55943 -0.763714,1.04653 -1.022619,1.43232 -0.129456,0.19289 -0.23604,0.35966 -0.320783,0.50609 -0.08475,0.14642 -0.150953,0.2282 -0.204693,0.4636 -0.05374,0.2354 -0.02934,0.33748 -0.01655,0.5062 0.01262,0.16873 0.03624,0.3655 0.06916,0.5955 0.06584,0.46 0.169137,1.05052 0.299894,1.73461 0.26151,1.36818 0.632695,3.10634 1.027947,4.83981 0.395256,1.73348 0.813925,3.46016 1.171353,4.80645 0.178713,0.67315 0.34185,1.25019 0.48194,1.69325 0.07005,0.22153 0.13348,0.40877 0.195085,0.56635 0.06161,0.15758 0.08496,0.26058 0.23545,0.44939 0.150474,0.1888 0.245268,0.23375 0.385107,0.32893 0.139842,0.0952 0.308324,0.19934 0.508598,0.317 0.400549,0.2353 0.926511,0.5226 1.542667,0.84683 1.232305,0.64844 2.821648,1.44098 4.422823,2.21256 1.601174,0.77157 3.212256,1.52073 4.487262,2.08051 0.637503,0.27989 1.190176,0.51286 1.623781,0.67952 0.216802,0.0833 0.402915,0.14957 0.564477,0.19964 0.161564,0.0501 0.255655,0.0964 0.497027,0.0964 0.241387,3e-5 0.336271,-0.0461 0.497849,-0.0962 0.161582,-0.05 0.347487,-0.11692 0.564318,-0.2002 0.43366,-0.16656 0.986041,-0.39874 1.623635,-0.6785 1.275183,-0.5595 2.886556,-1.30827 4.48798,-2.07949 1.601421,-0.77123 3.191083,-1.56364 4.423594,-2.21181 0.616255,-0.32409 1.142707,-0.61146 1.543324,-0.84668 0.200309,-0.11761 0.368608,-0.22169 0.508474,-0.31684 0.139866,-0.0951 0.234905,-0.14061 0.385428,-0.32937 0.150519,-0.18876 0.172993,-0.29118 0.234639,-0.44874 0.06165,-0.15756 0.12568,-0.34438 0.195786,-0.56588 0.140211,-0.44301 0.303682,-1.0199 0.482583,-1.69297 0.357802,-1.34615 0.776449,-3.07311 1.172189,-4.80641 0.39574,-1.7333 0.768027,-3.47095 1.029919,-4.83901 0.130947,-0.68403 0.234429,-1.2753 0.30038,-1.73527 0.03298,-0.22999 0.05645,-0.42648 0.0693,-0.5952 0.01284,-0.16871 0.03693,-0.27058 -0.01675,-0.506 -0.05368,-0.23543 -0.119928,-0.31703 -0.20464,-0.46348 -0.08471,-0.14645 -0.190839,-0.31324 -0.320254,-0.50617 -0.25883,-0.38585 -0.608149,-0.87374 -1.022675,-1.4333 -0.829053,-1.11909 -1.917913,-2.52332 -3.025907,-3.91346 -1.107994,-1.39014 -2.233965,-2.7645 -3.139939,-3.82225 -0.452987,-0.52888 -0.85048,-0.9777 -1.168869,-1.31605 -0.159195,-0.16917 -0.297877,-0.31026 -0.421728,-0.42549 -0.123852,-0.11523 -0.188715,-0.19817 -0.40617,-0.30296 -0.326192,-0.15719 -0.465998,-0.13168 -0.763211,-0.16373 -0.297213,-0.0321 -0.67155,-0.0587 -1.11332,-0.082 -0.883548,-0.0466 -2.033299,-0.0784 -3.293612,-0.0969 -2.520622,-0.037 -5.475223,-0.0195 -7.562598,0.0541 -0.695806,0.0245 -1.294927,0.0548 -1.757939,0.0929 z"
           transform="translate(79.709775,-1.0583332)" />
        <path
           id="path1112"
           style="fill:#0e232e;stroke:none;stroke-width:0.621623px;stroke-linecap:butt;stroke-linejoin:miter;stroke-opacity:1"
           d="m 20.403405,6.4274388 v 0.00241 c -1.628054,-0.00136 -2.750333,0.571337 -2.945039,0.7759039 -0.120462,0.3272826 -0.523483,3.5482813 -0.523483,3.5482813 l 3.468522,0.223842 v 0.0054 l 0.04289,-0.003 0.04289,0.003 v -0.0054 l 3.468006,-0.223842 c 0,0 -0.402504,-3.2209987 -0.522966,-3.5482813 -0.194703,-0.2045598 -1.317026,-0.7772269 -2.94504,-0.7759001 v -0.00241 c -0.01489,-2.039e-4 -0.02809,0.00133 -0.04289,0.0012 -0.01482,1.072e-4 -0.02799,-0.00142 -0.04289,-0.0012 z" />
        <path
           id="path1114"
           style="fill:#ffffff;stroke:none;stroke-width:2.34944px;stroke-linecap:butt;stroke-linejoin:miter;stroke-opacity:1"
           d="m 76.609375,37.560547 v 0.02344 c -17.338583,0.242219 -34.144531,5.0625 -34.144531,5.0625 -0.940951,0.917677 -2.801525,11.020807 -2.355469,12.333985 0.420242,0.945683 4.557744,3.346488 5.1875,3.802734 L 43.736328,73.376953 62.080078,76.75 77.277344,66.269531 92.472656,76.75 110.81836,73.376953 109.25781,58.783203 c 0.62976,-0.456246 4.76726,-2.857051 5.1875,-3.802734 0.44606,-1.313178 -1.41452,-11.416308 -2.35547,-12.333985 0,0 -16.805945,-4.820281 -34.144528,-5.0625 v -0.02344 c -0.223039,0 -0.445002,0.01014 -0.667968,0.01172 -0.222966,-0.0016 -0.44493,-0.01172 -0.667969,-0.01172 z"
           transform="scale(0.26458333)"
           sodipodi:nodetypes="ccccccccccccccccsc" />
        <path
           id="path1116"
           style="fill:#0e232e;stroke:none;stroke-width:2.34944px;stroke-linecap:butt;stroke-linejoin:miter;stroke-opacity:1"
           d="M 76.441406,59.675781 V 59.75 c -13.596749,1.084997 -26.813249,14.882813 -44.666015,14.882812 4.229913,12.183132 7.303959,21.470963 10.515625,28.468748 0.37764,-0.17467 0.783232,-0.40118 1.263672,-0.77929 4.712786,-3.709025 5.602947,8.7996 12.816406,-1.97657 5.452902,-8.14607 7.631482,9.52783 21.316406,9.48438 13.683156,0.0417 15.861814,-17.630057 21.314453,-9.48438 7.213457,10.77617 8.103617,-1.732455 12.816407,1.97657 0.21482,0.16906 0.41472,0.30611 0.60742,0.42968 3.15275,-6.956021 6.19336,-16.142551 10.35156,-28.119138 -17.85361,0 -31.068581,-13.798972 -44.666012,-14.882812 v -0.07422 c -0.278538,0 -0.555892,0.01605 -0.833984,0.02734 -0.278334,-0.01131 -0.557157,-0.02734 -0.835938,-0.02734 z"
           transform="scale(0.26458333)" />
        <path
           id="path1118"
           style="fill:#000000;stroke:none;stroke-width:0.621623px;stroke-linecap:butt;stroke-linejoin:miter;stroke-opacity:1"
           d="m 10.61379,14.552756 c 0.131666,0.256441 1.196886,0.880697 1.362189,1.000456 l 0.0079,0.0046 c 3.085058,-0.581004 5.817506,-0.806377 8.453647,-0.861659 2.844657,0.105191 6.98451,0.466667 8.471607,0.865133 l 0.0044,-0.0081 c 0.165259,-0.119742 1.24274,-0.754451 1.368343,-1.000439 -2.753058,-0.73768 -5.043693,-1.402498 -9.84436,-1.402498 -3.837496,0 -7.023106,0.641311 -9.823726,1.402507 z"
           sodipodi:nodetypes="ccccccccc" />
      </g>
      <g
         id="g1101"
         transform="translate(0.18239547,-0.26458367)">
        <g
           id="g5013"
           transform="matrix(1.2492972,0,0,1.2492972,6.8043472,-67.480694)"
           style="stroke-width:0.80045">
          <g
             aria-label="SHIPWRIGHT"
             id="g4964"
             style="font-style:normal;font-weight:normal;font-size:117.022px;line-height:1.25;font-family:sans-serif;fill:#ffffff;fill-opacity:1;stroke:none;stroke-width:30.7028"
             transform="matrix(0.07109568,0,0,0.07109568,-0.26476989,140.17697)">
            <g
               aria-label="SHIPWRIGHT"
               id="text4962"
               style="font-style:normal;font-weight:normal;font-size:126.832px;line-height:1.25;font-family:sans-serif;letter-spacing:0px;word-spacing:0px;fill:#ffffff;fill-opacity:1;stroke:none;stroke-width:41.5803">
              <path
                 d="m -81.101144,1001.116 c 25.3664,0 37.669104,-12.68316 37.669104,-27.5225 0,-32.59583 -51.620624,-21.30778 -51.620624,-37.66911 0,-5.58061 4.692784,-10.14656 16.868656,-10.14656 7.863584,0 16.361328,2.28298 24.605408,6.97576 l 6.3416,-15.60034 c -8.24408,-5.20011 -19.65896,-7.86358 -30.820176,-7.86358 -25.239564,0 -37.415444,12.55637 -37.415444,27.64938 0,32.97632 51.620628,21.56144 51.620628,38.17643 0,5.45378 -4.946448,9.5124 -17.12232,9.5124 -10.653888,0 -21.815108,-3.80496 -29.298188,-9.25874 l -6.97576,15.47351 c 7.86358,6.08793 22.068764,10.27335 36.147116,10.27335 z"
                 style="font-style:normal;font-variant:normal;font-weight:bold;font-stretch:normal;font-size:126.832px;font-family:Montserrat;-inkscape-font-specification:'Montserrat Bold';fill:#ffffff;fill-opacity:1;stroke-width:41.5803"
                 id="path3587" />
              <path
                 d="m 31.525496,910.81165 v 35.00564 H -8.8070802 V 910.81165 H -29.353864 v 88.78241 H -8.8070802 V 963.19327 H 31.525496 v 36.40079 H 52.07228 v -88.78241 z"
                 style="font-style:normal;font-variant:normal;font-weight:bold;font-stretch:normal;font-size:126.832px;font-family:Montserrat;-inkscape-font-specification:'Montserrat Bold';fill:#ffffff;fill-opacity:1;stroke-width:41.5803"
                 id="path3589" />
              <path
                 d="M 73.126223,999.59406 H 93.673007 V 910.81165 H 73.126223 Z"
                 style="font-style:normal;font-variant:normal;font-weight:bold;font-stretch:normal;font-size:126.832px;font-family:Montserrat;-inkscape-font-specification:'Montserrat Bold';fill:#ffffff;fill-opacity:1;stroke-width:41.5803"
                 id="path3591" />
              <path
                 d="m 153.1571,910.81165 h -38.43009 v 88.78241 h 20.54678 v -24.47858 h 17.88331 c 23.71759,0 38.55693,-12.30271 38.55693,-32.0885 0,-19.91262 -14.83934,-32.21533 -38.55693,-32.21533 z m -1.14148,47.562 h -16.74183 v -30.82017 h 16.74183 c 12.55636,0 18.89796,5.70744 18.89796,15.4735 0,9.63923 -6.3416,15.34667 -18.89796,15.34667 z"
                 style="font-style:normal;font-variant:normal;font-weight:bold;font-stretch:normal;font-size:126.832px;font-family:Montserrat;-inkscape-font-specification:'Montserrat Bold';fill:#ffffff;fill-opacity:1;stroke-width:41.5803"
                 id="path3593" />
              <path
                 d="m 319.81395,910.81165 -20.67361,62.90868 -20.29312,-62.90868 h -19.0248 L 238.89514,973.213 218.85568,910.81165 H 197.5479 l 29.17136,88.78241 h 21.94194 l 20.16629,-60.11837 19.53213,60.11837 h 22.06876 l 29.04453,-88.78241 z"
                 style="font-style:normal;font-variant:normal;font-weight:bold;font-stretch:normal;font-size:126.832px;font-family:Montserrat;-inkscape-font-specification:'Montserrat Bold';fill:#ffffff;fill-opacity:1;stroke-width:41.5803"
                 id="path3595" />
              <path
                 d="m 429.52325,999.59406 -19.91263,-28.5372 c 11.54172,-4.94645 18.26381,-14.71252 18.26381,-28.02988 0,-19.91262 -14.83934,-32.21533 -38.55693,-32.21533 h -38.43009 v 88.78241 h 20.54678 v -24.73224 h 17.88331 1.01466 l 17.12232,24.73224 z m -22.44927,-56.56708 c 0,9.63923 -6.3416,15.47351 -18.89796,15.47351 h -16.74183 v -30.94701 h 16.74183 c 12.55636,0 18.89796,5.70744 18.89796,15.4735 z"
                 style="font-style:normal;font-variant:normal;font-weight:bold;font-stretch:normal;font-size:126.832px;font-family:Montserrat;-inkscape-font-specification:'Montserrat Bold';fill:#ffffff;fill-opacity:1;stroke-width:41.5803"
                 id="path3597" />
              <path
                 d="m 444.10878,999.59406 h 20.54679 v -88.78241 h -20.54679 z"
                 style="font-style:normal;font-variant:normal;font-weight:bold;font-stretch:normal;font-size:126.832px;font-family:Montserrat;-inkscape-font-specification:'Montserrat Bold';fill:#ffffff;fill-opacity:1;stroke-width:41.5803"
                 id="path3599" />
              <path
                 d="m 545.70109,979.80826 c -5.20011,2.79031 -10.40023,3.80496 -15.98083,3.80496 -16.99549,0 -28.79087,-11.79537 -28.79087,-28.41037 0,-16.86865 11.79538,-28.41036 29.04453,-28.41036 9.00507,0 16.48816,3.1708 22.95659,10.01972 l 13.19053,-12.17587 c -8.62458,-10.01973 -21.56144,-15.34667 -37.16178,-15.34667 -28.28353,0 -48.83032,19.15163 -48.83032,45.91318 0,26.76156 20.54679,45.91315 48.44983,45.91315 12.6832,0 26.12739,-3.93175 35.89345,-11.28801 V 953.8077 h -18.77113 z"
                 style="font-style:normal;font-variant:normal;font-weight:bold;font-stretch:normal;font-size:126.832px;font-family:Montserrat;-inkscape-font-specification:'Montserrat Bold';fill:#ffffff;fill-opacity:1;stroke-width:41.5803"
                 id="path3601" />
              <path
                 d="m 644.37639,910.81165 v 35.00564 h -40.33258 v -35.00564 h -20.54678 v 88.78241 h 20.54678 v -36.40079 h 40.33258 v 36.40079 h 20.54678 v -88.78241 z"
                 style="font-style:normal;font-variant:normal;font-weight:bold;font-stretch:normal;font-size:126.832px;font-family:Montserrat;-inkscape-font-specification:'Montserrat Bold';fill:#ffffff;fill-opacity:1;stroke-width:41.5803"
                 id="path3603" />
              <path
                 d="m 704.36771,999.59406 h 20.54678 v -72.04058 h 28.41037 v -16.74183 h -77.36752 v 16.74183 h 28.41037 z"
                 style="font-style:normal;font-variant:normal;font-weight:bold;font-stretch:normal;font-size:126.832px;font-family:Montserrat;-inkscape-font-specification:'Montserrat Bold';fill:#ffffff;fill-opacity:1;stroke-width:41.5803"
                 id="path3605" />
            </g>
          </g>
        </g>
      </g>
    </g>
  </g>
</svg>
