<?xml version="1.0" encoding="UTF-8"?>
<svg xmlns="http://www.w3.org/2000/svg" xmlns:xlink="http://www.w3.org/1999/xlink" width="56px" height="56px" viewBox="0 0 56 56" version="1.1">
<g id="surface1">
<path style=" stroke:none;fill-rule:nonzero;fill:rgb(48.627451%,56.078434%,64.313728%);fill-opacity:1;" d="M 17.867188 2.175781 C 17.519531 2.207031 17.222656 2.238281 16.96875 2.273438 C 16.714844 2.3125 16.558594 2.3125 16.226562 2.472656 C 15.898438 2.628906 15.800781 2.753906 15.613281 2.929688 C 15.425781 3.101562 15.214844 3.316406 14.976562 3.570312 C 14.496094 4.082031 13.894531 4.761719 13.210938 5.5625 C 11.839844 7.160156 10.136719 9.238281 8.460938 11.335938 C 6.785156 13.4375 5.136719 15.5625 3.882812 17.253906 C 3.257812 18.097656 2.730469 18.835938 2.339844 19.417969 C 2.144531 19.710938 1.980469 19.960938 1.855469 20.183594 C 1.726562 20.40625 1.625 20.527344 1.542969 20.886719 C 1.464844 21.242188 1.5 21.394531 1.519531 21.648438 C 1.539062 21.90625 1.574219 22.203125 1.625 22.550781 C 1.722656 23.246094 1.878906 24.140625 2.078125 25.171875 C 2.472656 27.242188 3.035156 29.867188 3.632812 32.488281 C 4.230469 35.109375 4.863281 37.722656 5.402344 39.757812 C 5.671875 40.773438 5.917969 41.644531 6.128906 42.316406 C 6.238281 42.652344 6.332031 42.933594 6.425781 43.171875 C 6.519531 43.410156 6.554688 43.566406 6.78125 43.851562 C 7.007812 44.136719 7.152344 44.203125 7.363281 44.347656 C 7.574219 44.492188 7.828125 44.648438 8.132812 44.828125 C 8.738281 45.183594 9.535156 45.617188 10.464844 46.109375 C 12.328125 47.089844 14.730469 48.285156 17.152344 49.453125 C 19.570312 50.621094 22.007812 51.753906 23.933594 52.597656 C 24.898438 53.023438 25.734375 53.375 26.390625 53.625 C 26.71875 53.75 27 53.851562 27.242188 53.929688 C 27.488281 54.003906 27.628906 54.074219 27.996094 54.074219 C 28.359375 54.074219 28.503906 54.003906 28.746094 53.929688 C 28.992188 53.851562 29.273438 53.75 29.601562 53.625 C 30.257812 53.375 31.089844 53.023438 32.054688 52.601562 C 33.984375 51.753906 36.417969 50.621094 38.839844 49.457031 C 41.261719 48.289062 43.664062 47.09375 45.527344 46.113281 C 46.460938 45.621094 47.253906 45.1875 47.859375 44.832031 C 48.164062 44.652344 48.417969 44.496094 48.628906 44.351562 C 48.839844 44.210938 48.984375 44.140625 49.210938 43.855469 C 49.441406 43.570312 49.472656 43.414062 49.566406 43.175781 C 49.660156 42.9375 49.757812 42.65625 49.863281 42.320312 C 50.074219 41.652344 50.324219 40.777344 50.59375 39.761719 C 51.132812 37.726562 51.765625 35.117188 52.363281 32.496094 C 52.964844 29.875 53.527344 27.246094 53.921875 25.179688 C 54.121094 24.144531 54.277344 23.25 54.375 22.554688 C 54.425781 22.207031 54.460938 21.910156 54.480469 21.65625 C 54.5 21.402344 54.535156 21.246094 54.457031 20.890625 C 54.375 20.535156 54.273438 20.410156 54.144531 20.191406 C 54.019531 19.96875 53.859375 19.71875 53.664062 19.425781 C 53.269531 18.84375 52.742188 18.105469 52.117188 17.257812 C 50.863281 15.566406 49.214844 13.445312 47.542969 11.34375 C 45.867188 9.242188 44.164062 7.164062 42.792969 5.5625 C 42.109375 4.765625 41.507812 4.085938 41.027344 3.574219 C 40.785156 3.320312 40.578125 3.105469 40.390625 2.929688 C 40.203125 2.757812 40.105469 2.632812 39.777344 2.472656 C 39.28125 2.234375 39.070312 2.273438 38.621094 2.226562 C 38.171875 2.175781 37.605469 2.136719 36.9375 2.101562 C 35.601562 2.03125 33.863281 1.984375 31.960938 1.953125 C 28.148438 1.898438 23.683594 1.925781 20.527344 2.035156 C 19.472656 2.074219 18.570312 2.121094 17.867188 2.175781 Z M 17.867188 2.175781 "/>
<path style=" stroke:none;fill-rule:nonzero;fill:rgb(5.490196%,13.725491%,18.039216%);fill-opacity:1;" d="M 18.71875 10.988281 C 18.371094 10.988281 18.035156 11.128906 17.792969 11.382812 C 17.550781 11.632812 17.421875 11.972656 17.433594 12.320312 L 17.808594 22.015625 C 17.835938 22.703125 18.402344 23.25 19.089844 23.246094 L 36.96875 23.246094 C 37.660156 23.246094 38.222656 22.703125 38.25 22.015625 L 38.625 12.320312 C 38.636719 11.972656 38.507812 11.632812 38.265625 11.382812 C 38.023438 11.128906 37.6875 10.988281 37.339844 10.988281 Z M 20.054688 13.558594 L 36.007812 13.558594 L 35.734375 20.679688 L 20.328125 20.679688 Z M 20.054688 13.558594 "/>
<path style=" stroke:none;fill-rule:nonzero;fill:rgb(5.490196%,13.725491%,18.039216%);fill-opacity:1;" d="M 27.980469 6.285156 L 27.980469 6.289062 C 26.058594 6.285156 24.734375 6.960938 24.503906 7.203125 C 24.359375 7.589844 24.285156 11.40625 24.285156 11.40625 L 27.984375 11.644531 L 27.984375 11.652344 L 28.03125 11.648438 L 28.078125 11.652344 L 28.078125 11.644531 L 31.777344 11.40625 C 31.777344 11.40625 31.699219 7.589844 31.558594 7.203125 C 31.328125 6.960938 30.003906 6.285156 28.082031 6.289062 L 28.082031 6.285156 C 28.0625 6.285156 28.046875 6.285156 28.03125 6.285156 C 28.011719 6.285156 27.996094 6.285156 27.980469 6.285156 Z M 27.980469 6.285156 "/>
<path style=" stroke:none;fill-rule:nonzero;fill:rgb(5.490196%,13.725491%,18.039216%);fill-opacity:1;" d="M 27.769531 17.335938 L 27.769531 17.359375 C 23.523438 17.699219 13.816406 22.011719 13.816406 22.011719 C 14.402344 24.199219 15.339844 26.789062 15.988281 28.511719 C 16.414062 28.367188 16.78125 28.21875 17.097656 28.070312 C 18.386719 27.464844 18.703125 27.042969 18.703125 27.042969 L 19.703125 25.882812 L 20.851562 26.898438 C 20.851562 26.898438 23.5625 29.328125 28.136719 29.328125 C 32.714844 29.328125 35.738281 26.863281 35.738281 26.863281 L 36.601562 26.15625 L 37.53125 26.769531 C 37.53125 26.769531 38.605469 27.460938 40.261719 28.121094 C 40.882812 26.398438 41.703125 24.03125 42.246094 22.011719 C 42.246094 22.011719 32.539062 17.699219 28.289062 17.359375 L 28.289062 17.335938 C 28.203125 17.335938 28.117188 17.34375 28.03125 17.347656 C 27.945312 17.34375 27.855469 17.335938 27.769531 17.335938 Z M 27.769531 17.335938 "/>
<path style=" stroke:none;fill-rule:nonzero;fill:rgb(5.490196%,13.725491%,18.039216%);fill-opacity:1;" d="M 27.769531 17.335938 L 27.769531 17.359375 C 23.523438 17.699219 13.816406 22.011719 13.816406 22.011719 C 14.402344 24.199219 17.222656 32.652344 17.871094 34.375 C 25.011719 32.058594 31.558594 31.027344 38.71875 33.933594 C 39.339844 32.210938 41.703125 24.03125 42.246094 22.011719 C 42.246094 22.011719 32.539062 17.699219 28.292969 17.359375 L 28.292969 17.335938 C 28.203125 17.335938 28.117188 17.34375 28.03125 17.347656 C 27.945312 17.34375 27.859375 17.335938 27.769531 17.335938 Z M 27.769531 17.335938 "/>
<path style=" stroke:none;fill-rule:nonzero;fill:rgb(48.627451%,56.078434%,64.313728%);fill-opacity:1;" d="M 35.238281 28.597656 C 30.996094 32.398438 24.5 31.804688 20.554688 28.628906 L 19.417969 29.378906 C 19.417969 29.378906 15.644531 31.644531 12.875 31.644531 L 12.875 47.273438 C 16.46875 47.273438 19.210938 45.707031 20.382812 44.976562 C 21.558594 45.777344 23.878906 47.140625 27.882812 47.269531 C 31.976562 47.40625 34.347656 45.898438 35.554688 44.996094 C 36.753906 45.722656 39.523438 47.273438 43.015625 47.273438 L 43.015625 31.644531 C 40.449219 31.644531 36.445312 29.355469 36.445312 29.355469 Z M 35.238281 28.597656 "/>
<path style=" stroke:none;fill-rule:nonzero;fill:rgb(100%,100%,100%);fill-opacity:1;" d="M 35.117188 31.257812 L 34.261719 32.085938 C 34.261719 32.085938 31.953125 34.359375 27.828125 34.226562 C 23.597656 34.085938 21.230469 32.023438 21.230469 32.023438 L 20.367188 31.28125 L 19.417969 31.90625 C 19.417969 31.90625 15.621094 34.226562 12.710938 34.226562 L 12.710938 37.25 C 16.320312 37.25 19.183594 35.5625 20.21875 34.910156 C 21.253906 35.636719 23.609375 37.113281 27.730469 37.246094 C 31.925781 37.382812 34.316406 35.746094 35.378906 34.921875 C 36.4375 35.570312 39.347656 37.25 42.851562 37.25 L 42.851562 34.226562 C 40.136719 34.226562 36.121094 31.894531 36.121094 31.894531 Z M 35.117188 31.257812 "/>
<path style=" stroke:none;fill-rule:nonzero;fill:rgb(100%,100%,100%);fill-opacity:1;" d="M 35.117188 38.058594 C 33.117188 39.992188 29.507812 40.503906 27.828125 40.476562 C 25.148438 40.371094 22.425781 39.851562 20.367188 38.082031 C 18.039062 39.421875 15.035156 40.183594 12.710938 40.226562 L 12.710938 43.25 C 16.320312 43.25 19.183594 42.363281 20.21875 41.707031 C 21.253906 42.4375 23.609375 43.363281 27.730469 43.496094 C 31.925781 43.632812 34.316406 42.546875 35.378906 41.71875 C 36.4375 42.371094 39.347656 43.25 42.851562 43.25 L 42.851562 40.226562 C 40.183594 40.023438 37.398438 39.503906 35.117188 38.058594 Z M 35.117188 38.058594 "/>
</g>
</svg>
